<?xml version="1.0" encoding="utf-8"?>
<!-- Generator: Adobe Illustrator 22.0.1, SVG Export Plug-In . SVG Version: 6.00 Build 0)  -->
<svg version="1.1" id="iconmonstr" xmlns="http://www.w3.org/2000/svg" xmlns:xlink="http://www.w3.org/1999/xlink" x="0px" y="0px"
	 viewBox="0 0 24 24" style="enable-background:new 0 0 24 24;" xml:space="preserve">
<path id="linkedin-2" d="M0,0v24h24V0H0z M8,19H5V8h3V19z M6.501,6.732c-0.966,0-1.751-0.79-1.751-1.764
	c0-0.974,0.784-1.764,1.751-1.764S8.25,3.994,8.25,4.968C8.25,5.942,7.467,6.732,6.501,6.732z M20,19h-3v-5.604c0-3.369-4-3.114-4,0
	C13,15.039,13,19,13,19h-3V8h3v1.765c1.398-2.586,7-2.777,7,2.476C20,15.098,20,19,20,19z"/>
</svg>
