<?xml version="1.0" encoding="utf-8"?>
<!-- Generator: Adobe Illustrator 21.1.0, SVG Export Plug-In . SVG Version: 6.00 Build 0)  -->
<svg version="1.1" xmlns="http://www.w3.org/2000/svg" xmlns:xlink="http://www.w3.org/1999/xlink" x="0px" y="0px"
	 viewBox="0 0 167.457 35" style="enable-background:new 0 0 167.457 35;" xml:space="preserve">
<style type="text/css">
	.st0{display:none;}
	.st1{display:inline;}
	.st2{fill:none;stroke:#000000;}
	.st3{fill:#FFDB00;}
	.st4{fill:none;stroke:#000000;stroke-width:0.7782;stroke-miterlimit:10;}
	.st5{fill:none;stroke:#CCCCCC;stroke-width:0.7782;stroke-miterlimit:10;}
	.st6{fill:#CCCCCC;}
	.st7{fill:#FFF2BB;}
	.st8{fill:#FFFFFF;}
	.st9{fill:#8C6239;}
	.st10{fill:none;stroke:#000000;stroke-width:10;stroke-miterlimit:10;}
	.st11{fill:#808080;}
	.st12{fill:none;stroke:#FFDB00;stroke-width:7.381;stroke-miterlimit:10;stroke-dasharray:17.7143;}
	.st13{fill:none;stroke:#000000;stroke-width:4.3809;stroke-miterlimit:10;}
	.st14{fill:none;stroke:#000000;stroke-width:3.6126;stroke-miterlimit:10;}
	.st15{fill:none;stroke:#CCCCCC;stroke-width:2.5987;stroke-miterlimit:10;}
	.st16{fill:none;stroke:#CCCCCC;stroke-width:3.6126;stroke-miterlimit:10;}
	.st17{fill:#1A1A1A;}
	.st18{clip-path:url(#XMLID_5_);fill:none;stroke:#000000;stroke-width:5.3193;stroke-miterlimit:10;}
	.st19{clip-path:url(#XMLID_6_);fill:none;stroke:#000000;stroke-width:5.3193;stroke-miterlimit:10;}
	.st20{fill:none;stroke:#000000;stroke-width:5.3193;stroke-miterlimit:10;}
	.st21{clip-path:url(#XMLID_7_);fill:none;stroke:#000000;stroke-width:3.6126;stroke-miterlimit:10;}
	.st22{fill:none;stroke:#CCCCCC;stroke-width:3.8263;stroke-miterlimit:10;}
	.st23{clip-path:url(#SVGID_2_);}
	.st24{fill:none;stroke:#000000;stroke-width:3.5918;stroke-miterlimit:10;}
	.st25{fill:none;stroke:#000000;stroke-width:15;stroke-miterlimit:10;}
	.st26{fill:none;stroke:#000000;stroke-width:4;stroke-miterlimit:10;}
	.st27{fill:#F9E169;}
	.st28{fill:#4D4D4D;}
	.st29{stroke:#FFDB00;stroke-width:5;stroke-linejoin:round;stroke-miterlimit:10;}
</style>
<g id="Layer_1" class="st0">
</g>
<g id="Layer_2">
	<g>
		<g>
			<polygon class="st28" points="1.11,29.53 3.729,30.419 3.729,28.511 			"/>
			<polygon class="st28" points="166.347,29.53 163.729,30.419 163.729,28.511 			"/>
			<rect x="1.11" y="4.786" class="st3" width="165.237" height="24.744"/>
			<g>
				<rect x="1.11" y="4.786" width="165.237" height="0.777"/>
			</g>
			<g>
				<rect x="1.11" y="28.753" width="165.237" height="0.777"/>
			</g>
		</g>
		<g>
			<g>
				<path d="M47.659,12.238l2.067,4.589l3.692-4.589h1.611l-1.599,9.101h-1.561l1.079-6.175l-3.613,4.394l-2.094-4.329l-1.065,6.11
					h-1.561l1.6-9.101H47.659z"/>
				<path d="M59.607,12.238h1.586l1.938,9.101h-1.534l-0.455-2.158h-3.796l-1.209,2.158h-1.664L59.607,12.238z M58.151,17.751h2.679
					l-0.729-3.51L58.151,17.751z"/>
				<path d="M65.95,12.238h1.56l-1.599,9.101h-1.56L65.95,12.238z"/>
				<path d="M71.02,12.238l3.433,6.371l1.118-6.371h1.56l-1.599,9.101h-1.404l-3.445-6.357l-1.104,6.357h-1.561l1.6-9.101H71.02z"/>
				<path d="M86.269,18.738c0-0.676-0.533-0.871-1.443-1.209c-1.144-0.429-2.404-1.079-2.404-2.652c0-1.339,1.3-2.795,3.224-2.795
					c2.08,0,2.978,1.443,2.978,1.443l-1.093,1.014c0,0-0.754-0.975-1.885-0.975c-0.884,0-1.612,0.559-1.612,1.287
					c0,0.702,0.716,0.832,1.781,1.274c1.157,0.481,2.067,1.04,2.067,2.548c0,1.846-1.664,2.821-3.394,2.821
					c-2.223,0-3.275-1.794-3.275-1.794l1.17-1.066c0,0,0.793,1.378,2.105,1.378C85.241,20.012,86.269,19.688,86.269,18.738z"/>
				<path d="M90.612,12.238h3.028c1.587,0,2.613,1.066,2.613,2.601c0,1.651-1.273,3.224-3.536,3.224h-1.573l-0.571,3.276h-1.561
					L90.612,12.238z M94.641,14.839c0-0.676-0.455-1.118-1.391-1.118h-1.339l-0.507,2.86h1.339
					C93.926,16.58,94.641,15.852,94.641,14.839z"/>
				<path d="M105.925,16.19c0,2.834-2.379,5.305-5.252,5.305c-2.665,0-4.108-1.833-4.108-4.122c0-2.821,2.392-5.291,5.252-5.291
					C104.482,12.082,105.925,13.902,105.925,16.19z M104.325,16.19c0-1.443-0.909-2.626-2.509-2.626
					c-2.184,0-3.653,1.937-3.653,3.809c0,1.443,0.91,2.639,2.51,2.639C102.857,20.012,104.325,18.062,104.325,16.19z"/>
				<path d="M109.46,12.238l3.433,6.371l1.118-6.371h1.56l-1.599,9.101h-1.404l-3.445-6.357l-1.104,6.357h-1.561l1.6-9.101H109.46z"
					/>
				<path d="M120.888,18.738c0-0.676-0.533-0.871-1.443-1.209c-1.144-0.429-2.404-1.079-2.404-2.652c0-1.339,1.3-2.795,3.224-2.795
					c2.08,0,2.978,1.443,2.978,1.443l-1.093,1.014c0,0-0.754-0.975-1.885-0.975c-0.884,0-1.612,0.559-1.612,1.287
					c0,0.702,0.716,0.832,1.781,1.274c1.157,0.481,2.067,1.04,2.067,2.548c0,1.846-1.664,2.821-3.394,2.821
					c-2.223,0-3.275-1.794-3.275-1.794l1.17-1.066c0,0,0.793,1.378,2.105,1.378C119.861,20.012,120.888,19.688,120.888,18.738z"/>
				<path d="M133.186,16.19c0,2.834-2.379,5.305-5.252,5.305c-2.666,0-4.108-1.833-4.108-4.122c0-2.821,2.392-5.291,5.252-5.291
					C131.742,12.082,133.186,13.902,133.186,16.19z M131.586,16.19c0-1.443-0.91-2.626-2.509-2.626
					c-2.184,0-3.653,1.937-3.653,3.809c0,1.443,0.91,2.639,2.51,2.639C130.117,20.012,131.586,18.062,131.586,16.19z"/>
				<path d="M135.318,12.238h2.95c1.6,0,2.601,1.04,2.601,2.522c0,1.573-1.196,2.821-2.574,3.016l1.677,3.562h-1.703l-1.56-3.432
					h-0.832l-0.598,3.432h-1.561L135.318,12.238z M139.256,14.76c0-0.689-0.52-1.04-1.404-1.04h-1.234l-0.481,2.704h1.235
					C138.489,16.424,139.256,15.8,139.256,14.76z"/>
			</g>
			<path d="M37.748,22.437h-8.442c-0.105,0.702-0.175,1.474-0.175,2.347h8.793C37.923,23.911,37.853,23.139,37.748,22.437z
				 M36.903,18.17c-0.015-0.14-0.026-0.283-0.032-0.427h-6.688c-0.005,0.144-0.016,0.287-0.032,0.427
				c-0.069,0.629-0.21,1.253-0.365,1.919h7.483C37.114,19.423,36.972,18.799,36.903,18.17z M37.218,9.576
				c-1.15-0.215-1.837-0.697-1.837-0.697c-0.445,0.855-1.854,1.44-1.854,1.44s-1.409-0.585-1.855-1.44c0,0-0.687,0.482-1.837,0.697
				c-1.151,0.215-2.116,1.215-3.248,5.242l2.301,1.147l0.116-0.259l0.139-0.31l0.58-1.298c0,0,0.151,0.535,0.282,1.298h7.042
				c0.13-0.763,0.282-1.298,0.282-1.298l0.58,1.298l0.139,0.312l0.115,0.257l2.301-1.147C39.334,10.791,38.369,9.791,37.218,9.576z
				 M37.567,13.048h-8.08c-0.199-1.065-0.199-1.82-0.121-2.347h8.323C37.766,11.228,37.766,11.982,37.567,13.048z"/>
		</g>
	</g>
</g>
</svg>
