<?xml version="1.0" encoding="utf-8"?>
<!-- Generator: Adobe Illustrator 21.1.0, SVG Export Plug-In . SVG Version: 6.00 Build 0)  -->
<svg version="1.1" xmlns="http://www.w3.org/2000/svg" xmlns:xlink="http://www.w3.org/1999/xlink" x="0px" y="0px"
	 viewBox="0 0 30 36" style="enable-background:new 0 0 30 36;" xml:space="preserve">
<style type="text/css">
	.st0{display:none;}
	.st1{display:inline;}
	.st2{fill:none;stroke:#000000;}
	.st3{fill:#FFDB00;}
	.st4{fill:none;stroke:#000000;stroke-width:0.7782;stroke-miterlimit:10;}
	.st5{fill:none;stroke:#CCCCCC;stroke-width:0.7782;stroke-miterlimit:10;}
	.st6{fill:#CCCCCC;}
	.st7{fill:#FFF2BB;}
	.st8{fill:#FFFFFF;}
	.st9{fill:#8C6239;}
	.st10{fill:none;stroke:#000000;stroke-width:10;stroke-miterlimit:10;}
	.st11{fill:#808080;}
	.st12{fill:none;stroke:#FFDB00;stroke-width:7.381;stroke-miterlimit:10;stroke-dasharray:17.7143;}
	.st13{fill:none;stroke:#000000;stroke-width:4.3809;stroke-miterlimit:10;}
	.st14{fill:none;stroke:#000000;stroke-width:3.6126;stroke-miterlimit:10;}
	.st15{fill:none;stroke:#CCCCCC;stroke-width:2.5987;stroke-miterlimit:10;}
	.st16{fill:none;stroke:#CCCCCC;stroke-width:3.6126;stroke-miterlimit:10;}
	.st17{fill:#1A1A1A;}
	.st18{clip-path:url(#XMLID_5_);fill:none;stroke:#000000;stroke-width:5.3193;stroke-miterlimit:10;}
	.st19{clip-path:url(#XMLID_6_);fill:none;stroke:#000000;stroke-width:5.3193;stroke-miterlimit:10;}
	.st20{fill:none;stroke:#000000;stroke-width:5.3193;stroke-miterlimit:10;}
	.st21{clip-path:url(#XMLID_7_);fill:none;stroke:#000000;stroke-width:3.6126;stroke-miterlimit:10;}
	.st22{fill:none;stroke:#CCCCCC;stroke-width:3.8263;stroke-miterlimit:10;}
	.st23{clip-path:url(#SVGID_2_);}
	.st24{fill:none;stroke:#000000;stroke-width:3.5918;stroke-miterlimit:10;}
	.st25{fill:none;stroke:#000000;stroke-width:15;stroke-miterlimit:10;}
	.st26{fill:none;stroke:#000000;stroke-width:4;stroke-miterlimit:10;}
	.st27{fill:#F9E169;}
	.st28{fill:#4D4D4D;}
	.st29{stroke:#FFDB00;stroke-width:5;stroke-linejoin:round;stroke-miterlimit:10;}
</style>
<g id="Layer_1" class="st0">
</g>
<g id="Layer_2">
	<g>
		<path class="st5" d="M28.672,3.233c-3.39-1.056-6.993-1.651-10.761-1.734c-0.001-0.01-0.003-0.016-0.004-0.018
			c-0.026-0.027-2.301-0.055-2.858-0.055c-0.557,0-2.885,0.141-2.885,0.141l0,0.011C8.325,1.763,4.651,2.328,1.265,3.599
			L1.249,5.455l0.08,4.818l0.247,6.377l0.534,6.577l0.478,4.012l1.257,0.901l0.039,0.038l0.024,0.017
			c1.633,1.06,3.282,2.095,4.969,3.059l3.496,1.887l2.937,1.433c1.649-0.788,3.243-1.696,4.842-2.596l3.361-2.062l4.3-2.923
			l0.04-0.159l0.453-4.832l0.287-4.356l0.119-3.345l0.04-6.974L28.672,3.233z"/>
		<path class="st5" d="M13.055,31.741l-3.438-1.858c-1.397-0.798-2.885-1.713-4.781-2.943l-0.084-0.066l-0.7-0.501l-0.396-3.33
			l-0.529-6.519l-0.242-6.312l-0.08-4.784l0.007-0.723c2.696-0.882,5.793-1.398,9.428-1.572l1.622-0.078l-0.002-0.024
			c0.535-0.027,1.006-0.048,1.189-0.048c0.302,0,0.89,0.006,1.442,0.015l0.002,0.027l1.384,0.03
			c3.179,0.069,6.289,0.522,9.262,1.349l0.058,2.953l-0.041,6.936l-0.118,3.298l-0.284,4.308l-0.395,4.2l-3.721,2.529l-3.3,2.023
			l-0.277,0.155c-1.226,0.69-2.486,1.401-3.751,2.035L13.055,31.741z"/>
	</g>
	<g>
		<path class="st6" d="M14.486,22.157c-0.96-0.08-1.885-0.268-2.776-0.566c-0.891-0.297-1.703-0.697-2.433-1.2l1.748-2.588
			c0.64,0.411,1.257,0.731,1.851,0.96c0.594,0.229,1.165,0.383,1.714,0.463v-1.422c-0.754-0.148-1.42-0.323-1.996-0.523
			c-0.577-0.2-1.06-0.448-1.448-0.745c-0.389-0.297-0.683-0.648-0.883-1.054c-0.2-0.405-0.3-0.888-0.3-1.448V14
			c0-0.525,0.094-1.017,0.283-1.474c0.189-0.457,0.474-0.854,0.857-1.191c0.383-0.337,0.862-0.608,1.439-0.814
			c0.577-0.206,1.248-0.326,2.014-0.36V9.184h1.782v1.028c0.8,0.08,1.528,0.24,2.185,0.48c0.657,0.24,1.271,0.543,1.842,0.908
			l-1.645,2.605c-0.366-0.263-0.765-0.48-1.2-0.651c-0.434-0.171-0.863-0.303-1.285-0.394v1.405c0.72,0.137,1.356,0.303,1.911,0.497
			c0.554,0.194,1.022,0.437,1.405,0.728c0.383,0.291,0.674,0.646,0.874,1.062c0.2,0.417,0.3,0.917,0.3,1.499v0.034
			c0,0.571-0.106,1.08-0.317,1.525c-0.212,0.446-0.511,0.825-0.9,1.14c-0.389,0.314-0.857,0.568-1.405,0.763
			c-0.548,0.194-1.16,0.314-1.834,0.36v1.679h-1.782V22.157z M14.623,13.006c-0.423,0.011-0.72,0.077-0.891,0.197
			c-0.171,0.12-0.257,0.266-0.257,0.437v0.034c0,0.183,0.08,0.328,0.24,0.437c0.16,0.109,0.463,0.203,0.908,0.283V13.006z
			 M16.2,19.346c0.4-0.023,0.683-0.091,0.848-0.206c0.166-0.114,0.249-0.263,0.249-0.446v-0.034c0-0.183-0.074-0.326-0.223-0.428
			c-0.149-0.103-0.44-0.194-0.874-0.274V19.346z"/>
	</g>
</g>
</svg>
