<?xml version="1.0" encoding="utf-8"?>
<!-- Generator: Adobe Illustrator 21.1.0, SVG Export Plug-In . SVG Version: 6.00 Build 0)  -->
<svg version="1.1" xmlns="http://www.w3.org/2000/svg" xmlns:xlink="http://www.w3.org/1999/xlink" x="0px" y="0px"
	 viewBox="0 0 167.457 35" style="enable-background:new 0 0 167.457 35;" xml:space="preserve">
<style type="text/css">
	.st0{display:none;}
	.st1{display:inline;}
	.st2{fill:none;stroke:#000000;}
	.st3{fill:#FFDB00;}
	.st4{fill:none;stroke:#000000;stroke-width:0.7782;stroke-miterlimit:10;}
	.st5{fill:none;stroke:#CCCCCC;stroke-width:0.7782;stroke-miterlimit:10;}
	.st6{fill:#CCCCCC;}
	.st7{fill:#FFF2BB;}
	.st8{fill:#FFFFFF;}
	.st9{fill:#8C6239;}
	.st10{fill:none;stroke:#000000;stroke-width:10;stroke-miterlimit:10;}
	.st11{fill:#808080;}
	.st12{fill:none;stroke:#FFDB00;stroke-width:7.381;stroke-miterlimit:10;stroke-dasharray:17.7143;}
	.st13{fill:none;stroke:#000000;stroke-width:4.3809;stroke-miterlimit:10;}
	.st14{fill:none;stroke:#000000;stroke-width:3.6126;stroke-miterlimit:10;}
	.st15{fill:none;stroke:#CCCCCC;stroke-width:2.5987;stroke-miterlimit:10;}
	.st16{fill:none;stroke:#CCCCCC;stroke-width:3.6126;stroke-miterlimit:10;}
	.st17{fill:#1A1A1A;}
	.st18{clip-path:url(#XMLID_5_);fill:none;stroke:#000000;stroke-width:5.3193;stroke-miterlimit:10;}
	.st19{clip-path:url(#XMLID_6_);fill:none;stroke:#000000;stroke-width:5.3193;stroke-miterlimit:10;}
	.st20{fill:none;stroke:#000000;stroke-width:5.3193;stroke-miterlimit:10;}
	.st21{clip-path:url(#XMLID_7_);fill:none;stroke:#000000;stroke-width:3.6126;stroke-miterlimit:10;}
	.st22{fill:none;stroke:#CCCCCC;stroke-width:3.8263;stroke-miterlimit:10;}
	.st23{clip-path:url(#SVGID_2_);}
	.st24{fill:none;stroke:#000000;stroke-width:3.5918;stroke-miterlimit:10;}
	.st25{fill:none;stroke:#000000;stroke-width:15;stroke-miterlimit:10;}
	.st26{fill:none;stroke:#000000;stroke-width:4;stroke-miterlimit:10;}
	.st27{fill:#F9E169;}
	.st28{fill:#4D4D4D;}
	.st29{stroke:#FFDB00;stroke-width:5;stroke-linejoin:round;stroke-miterlimit:10;}
</style>
<g id="Layer_1" class="st0">
</g>
<g id="Layer_2">
	<g>
		<g>
			<polygon class="st28" points="1.11,29.53 3.729,30.419 3.729,28.511 			"/>
			<polygon class="st28" points="166.347,29.53 163.729,30.419 163.729,28.511 			"/>
			<rect x="1.11" y="4.786" class="st3" width="165.237" height="24.744"/>
			<g>
				<rect x="1.11" y="4.786" width="165.237" height="0.777"/>
			</g>
			<g>
				<rect x="1.11" y="28.753" width="165.237" height="0.777"/>
			</g>
		</g>
		<g>
			<g>
				<path d="M48.721,18.575c0-0.459-0.361-0.591-0.979-0.82c-0.776-0.291-1.632-0.732-1.632-1.799c0-0.909,0.882-1.896,2.188-1.896
					c1.411,0,2.02,0.979,2.02,0.979l-0.741,0.688c0,0-0.511-0.661-1.278-0.661c-0.6,0-1.094,0.379-1.094,0.873
					c0,0.476,0.485,0.564,1.208,0.864c0.785,0.326,1.402,0.706,1.402,1.729c0,1.252-1.129,1.914-2.302,1.914
					c-1.508,0-2.223-1.217-2.223-1.217l0.794-0.723c0,0,0.538,0.935,1.429,0.935C48.025,19.439,48.721,19.219,48.721,18.575z"/>
				<path d="M52.283,16.67h2.47l-0.177,1.005h-2.469l-0.291,1.658h2.733l-0.176,1.005h-3.793l1.085-6.174h3.739L55.23,15.17h-2.682
					L52.283,16.67z"/>
				<path d="M60.108,18.698l0.617,0.776c0,0-0.97,0.97-2.398,0.97c-1.861,0-2.796-1.341-2.796-2.849
					c0-1.985,1.693-3.537,3.571-3.537c1.57,0,2.294,0.97,2.294,0.97l-0.697,0.697c0,0-0.582-0.679-1.597-0.679
					c-1.42,0-2.478,1.191-2.478,2.549c0,0.997,0.564,1.861,1.702,1.861C59.411,19.457,60.108,18.698,60.108,18.698z"/>
				<path d="M67.842,16.846c0,1.923-1.613,3.599-3.563,3.599c-1.809,0-2.787-1.244-2.787-2.796c0-1.914,1.623-3.589,3.563-3.589
					C66.864,14.059,67.842,15.294,67.842,16.846z M66.757,16.846c0-0.979-0.617-1.781-1.702-1.781c-1.481,0-2.478,1.314-2.478,2.584
					c0,0.979,0.617,1.791,1.702,1.791C65.761,19.439,66.757,18.116,66.757,16.846z"/>
				<path d="M70.241,14.165l2.328,4.322l0.758-4.322h1.059l-1.085,6.174h-0.952l-2.337-4.313l-0.75,4.313h-1.059l1.085-6.174H70.241
					z"/>
				<path d="M80.25,16.82c0,1.861-1.226,3.519-3.387,3.519h-2.258l1.085-6.174h1.993C79.307,14.165,80.25,15.365,80.25,16.82z
					 M79.148,16.82c0-0.935-0.582-1.649-1.622-1.649h-0.953l-0.731,4.163h0.952C78.327,19.333,79.148,18.107,79.148,16.82z"/>
				<path d="M83.347,14.165h1.075l1.314,6.174h-1.041l-0.309-1.464h-2.575l-0.82,1.464h-1.129L83.347,14.165z M82.359,17.905h1.816
					l-0.493-2.381L82.359,17.905z"/>
				<path d="M87.527,14.165h2.002c1.085,0,1.764,0.706,1.764,1.711c0,1.067-0.811,1.914-1.746,2.046l1.138,2.417h-1.155
					l-1.059-2.328h-0.564L87.5,20.339h-1.059L87.527,14.165z M90.199,15.876c0-0.467-0.354-0.706-0.953-0.706h-0.838l-0.326,1.834
					h0.838C89.679,17.005,90.199,16.581,90.199,15.876z"/>
				<path d="M93.991,20.339h-1.058l0.423-2.434l-1.446-3.74h1.111l1.015,2.752l1.976-2.752h1.173l-2.77,3.74L93.991,20.339z"/>
				<path d="M102.802,18.575c0-0.459-0.361-0.591-0.979-0.82c-0.776-0.291-1.632-0.732-1.632-1.799c0-0.909,0.882-1.896,2.188-1.896
					c1.411,0,2.02,0.979,2.02,0.979l-0.741,0.688c0,0-0.511-0.661-1.278-0.661c-0.6,0-1.094,0.379-1.094,0.873
					c0,0.476,0.485,0.564,1.208,0.864c0.785,0.326,1.402,0.706,1.402,1.729c0,1.252-1.129,1.914-2.302,1.914
					c-1.508,0-2.223-1.217-2.223-1.217l0.794-0.723c0,0,0.538,0.935,1.429,0.935C102.106,19.439,102.802,19.219,102.802,18.575z"/>
				<path d="M105.748,14.165h2.055c1.076,0,1.773,0.723,1.773,1.764c0,1.12-0.864,2.187-2.399,2.187h-1.067l-0.388,2.223h-1.059
					L105.748,14.165z M108.483,15.929c0-0.458-0.309-0.759-0.944-0.759h-0.908l-0.344,1.94h0.908
					C107.997,17.111,108.483,16.617,108.483,15.929z"/>
				<path d="M116.138,16.846c0,1.923-1.613,3.599-3.563,3.599c-1.809,0-2.787-1.244-2.787-2.796c0-1.914,1.623-3.589,3.563-3.589
					C115.159,14.059,116.138,15.294,116.138,16.846z M115.053,16.846c0-0.979-0.617-1.781-1.702-1.781
					c-1.481,0-2.478,1.314-2.478,2.584c0,0.979,0.617,1.791,1.702,1.791C114.057,19.439,115.053,18.116,115.053,16.846z"/>
				<path d="M118.537,14.165l2.328,4.322l0.758-4.322h1.059l-1.085,6.174h-0.952l-2.337-4.313l-0.75,4.313h-1.059l1.085-6.174
					H118.537z"/>
				<path d="M126.288,18.575c0-0.459-0.361-0.591-0.979-0.82c-0.776-0.291-1.632-0.732-1.632-1.799c0-0.909,0.882-1.896,2.188-1.896
					c1.411,0,2.02,0.979,2.02,0.979l-0.741,0.688c0,0-0.511-0.661-1.278-0.661c-0.6,0-1.094,0.379-1.094,0.873
					c0,0.476,0.485,0.564,1.208,0.864c0.785,0.326,1.402,0.706,1.402,1.729c0,1.252-1.129,1.914-2.302,1.914
					c-1.508,0-2.223-1.217-2.223-1.217l0.794-0.723c0,0,0.538,0.935,1.429,0.935C125.592,19.439,126.288,19.219,126.288,18.575z"/>
				<path d="M134.632,16.846c0,1.923-1.613,3.599-3.563,3.599c-1.809,0-2.787-1.244-2.787-2.796c0-1.914,1.623-3.589,3.563-3.589
					C133.654,14.059,134.632,15.294,134.632,16.846z M133.547,16.846c0-0.979-0.617-1.781-1.702-1.781
					c-1.481,0-2.478,1.314-2.478,2.584c0,0.979,0.617,1.791,1.702,1.791C132.551,19.439,133.547,18.116,133.547,16.846z"/>
				<path d="M136.078,14.165h2.002c1.085,0,1.765,0.706,1.765,1.711c0,1.067-0.812,1.914-1.747,2.046l1.138,2.417h-1.155
					l-1.058-2.328h-0.564l-0.406,2.328h-1.059L136.078,14.165z M138.751,15.876c0-0.467-0.354-0.706-0.953-0.706h-0.838
					l-0.326,1.834h0.838C138.231,17.005,138.751,16.581,138.751,15.876z"/>
			</g>
			<path d="M38.774,22.437h-8.442c-0.105,0.702-0.175,1.474-0.175,2.347h8.793C38.949,23.911,38.879,23.139,38.774,22.437z
				 M37.929,18.17c-0.015-0.14-0.026-0.283-0.032-0.427h-6.688c-0.005,0.144-0.016,0.287-0.032,0.427
				c-0.069,0.629-0.21,1.253-0.365,1.919h7.483C38.139,19.423,37.998,18.799,37.929,18.17z M38.244,9.576
				c-1.15-0.215-1.837-0.697-1.837-0.697c-0.445,0.855-1.854,1.44-1.854,1.44s-1.409-0.585-1.855-1.44c0,0-0.687,0.482-1.837,0.697
				c-1.151,0.215-2.116,1.215-3.248,5.242l2.301,1.147l0.116-0.259l0.139-0.31l0.58-1.298c0,0,0.151,0.535,0.282,1.298h7.042
				c0.13-0.763,0.282-1.298,0.282-1.298l0.58,1.298l0.139,0.312l0.115,0.257l2.301-1.147C40.359,10.791,39.394,9.791,38.244,9.576z
				 M38.593,13.048h-8.08c-0.199-1.065-0.199-1.82-0.121-2.347h8.323C38.792,11.228,38.792,11.982,38.593,13.048z"/>
		</g>
	</g>
</g>
</svg>
