<?xml version="1.0" encoding="utf-8"?>
<!-- Generator: Adobe Illustrator 21.1.0, SVG Export Plug-In . SVG Version: 6.00 Build 0)  -->
<svg version="1.1" xmlns="http://www.w3.org/2000/svg" xmlns:xlink="http://www.w3.org/1999/xlink" x="0px" y="0px"
	 viewBox="0 0 30 36" style="enable-background:new 0 0 30 36;" xml:space="preserve">
<style type="text/css">
	.st0{display:none;}
	.st1{display:inline;}
	.st2{fill:none;stroke:#000000;}
	.st3{fill:url(#SVGID_1_);}
	.st4{filter:url(#Adobe_OpacityMaskFilter);}
	.st5{fill:url(#SVGID_3_);}
	.st6{fill:#FFFFFF;}
	.st7{opacity:0.5;}
	.st8{fill:#FFDB00;}
	.st9{fill:none;stroke:#000000;stroke-width:0.7782;stroke-miterlimit:10;}
	.st10{fill:none;stroke:#CCCCCC;stroke-width:0.7782;stroke-miterlimit:10;}
	.st11{fill:#CCCCCC;}
	.st12{fill:#FFF2BB;}
	.st13{fill:#8C6239;}
	.st14{fill:none;stroke:#000000;stroke-width:10;stroke-miterlimit:10;}
	.st15{fill:#808080;}
	.st16{fill:none;stroke:#FFDB00;stroke-width:7.381;stroke-miterlimit:10;stroke-dasharray:17.7143;}
	.st17{fill:none;stroke:#000000;stroke-width:4.3809;stroke-miterlimit:10;}
	.st18{fill:none;stroke:#000000;stroke-width:3.6126;stroke-miterlimit:10;}
	.st19{fill:none;stroke:#CCCCCC;stroke-width:2.5987;stroke-miterlimit:10;}
	.st20{fill:none;stroke:#CCCCCC;stroke-width:3.6126;stroke-miterlimit:10;}
	.st21{fill:#1A1A1A;}
	.st22{clip-path:url(#XMLID_5_);fill:none;stroke:#000000;stroke-width:5.3193;stroke-miterlimit:10;}
	.st23{clip-path:url(#XMLID_6_);fill:none;stroke:#000000;stroke-width:5.3193;stroke-miterlimit:10;}
	.st24{fill:none;stroke:#000000;stroke-width:5.3193;stroke-miterlimit:10;}
	.st25{clip-path:url(#XMLID_7_);fill:none;stroke:#000000;stroke-width:3.6126;stroke-miterlimit:10;}
	.st26{fill:none;stroke:#CCCCCC;stroke-width:3.8263;stroke-miterlimit:10;}
	.st27{clip-path:url(#SVGID_5_);}
	.st28{fill:none;stroke:#000000;stroke-width:3.5918;stroke-miterlimit:10;}
	.st29{fill:none;stroke:#000000;stroke-width:15;stroke-miterlimit:10;}
	.st30{fill:none;stroke:#000000;stroke-width:4;stroke-miterlimit:10;}
	.st31{fill:#F9E169;}
	.st32{fill:#4D4D4D;}
	.st33{stroke:#FFDB00;stroke-width:5;stroke-linejoin:round;stroke-miterlimit:10;}
	.st34{fill:url(#);}
	.st35{fill:none;stroke:#000000;stroke-width:5.0279;stroke-miterlimit:10;}
	.st36{fill:none;stroke:#CCCCCC;stroke-width:0.858;stroke-miterlimit:10;}
	.st37{fill:none;stroke:#000000;stroke-width:1.1928;stroke-miterlimit:10;}
	.st38{fill:none;stroke:#CCCCCC;stroke-width:1.1928;stroke-miterlimit:10;}
	.st39{fill:none;stroke:#CCCCCC;stroke-width:0.8338;stroke-miterlimit:10;}
	.st40{fill:none;stroke:#000000;stroke-width:1.1592;stroke-miterlimit:10;}
	.st41{fill:none;stroke:#CCCCCC;stroke-width:1.1592;stroke-miterlimit:10;}
</style>
<g id="Layer_1" class="st0">
</g>
<g id="Layer_2">
	<g>
		<g>
			<path class="st10" d="M28.672,3.233c-3.39-1.056-6.993-1.651-10.761-1.734c-0.001-0.01-0.003-0.016-0.004-0.018
				c-0.026-0.027-2.301-0.055-2.858-0.055c-0.557,0-2.885,0.141-2.885,0.141l0,0.011C8.325,1.762,4.651,2.327,1.264,3.599
				L1.249,5.454l0.08,4.818l0.247,6.377l0.534,6.577l0.478,4.012l1.257,0.901l0.039,0.038l0.024,0.017
				c1.633,1.06,3.282,2.095,4.969,3.059l3.496,1.887l2.937,1.434c1.649-0.788,3.243-1.696,4.842-2.596l3.361-2.062l4.3-2.923
				l0.04-0.159l0.453-4.832l0.287-4.356l0.119-3.345l0.04-6.974L28.672,3.233z"/>
			<path class="st10" d="M13.055,31.741l-3.438-1.858c-1.397-0.798-2.885-1.713-4.78-2.942l-0.085-0.067l-0.7-0.501l-0.396-3.33
				l-0.529-6.519l-0.242-6.311l-0.08-4.784l0.007-0.724c2.697-0.882,5.794-1.398,9.428-1.572l1.617-0.078l-0.002-0.024
				c0.537-0.028,1.01-0.049,1.194-0.049c0.303,0,0.893,0.006,1.447,0.015l0.003,0.027l1.378,0.031
				c3.179,0.07,6.289,0.523,9.262,1.349l0.058,2.953l-0.041,6.935l-0.118,3.298l-0.284,4.309l-0.395,4.2l-3.721,2.529l-3.3,2.023
				l-0.277,0.155c-1.226,0.69-2.486,1.401-3.751,2.035L13.055,31.741z"/>
		</g>
		<path class="st11" d="M23.239,13.757l-0.257-0.256c-0.128,0.128-0.337,0.127-0.465-0.001c-0.129-0.129-0.129-0.336,0-0.465
			l-0.245-0.245c-0.129,0.128-0.337,0.128-0.465,0c-0.129-0.129-0.129-0.337-0.001-0.466l-0.245-0.245
			c-0.586,0.586-1.536,0.586-2.122,0c-0.586-0.586-0.586-1.536,0-2.122L19.183,9.7c-0.129,0.128-0.337,0.128-0.466-0.001
			c-0.128-0.128-0.128-0.336,0-0.465L18.472,8.99c-0.128,0.129-0.336,0.129-0.465,0c-0.128-0.128-0.129-0.337-0.001-0.465
			l-0.245-0.245c-0.128,0.128-0.336,0.128-0.464,0L6.761,18.815c0.129,0.128,0.128,0.337,0,0.465l0.245,0.245
			c0.128-0.128,0.338-0.128,0.466,0C7.6,19.654,7.6,19.862,7.471,19.991l0.245,0.245c0.129-0.128,0.338-0.129,0.466-0.001
			c0.129,0.129,0.129,0.338,0,0.466l0.256,0.256c0.586-0.586,1.536-0.587,2.123-0.001c0.586,0.586,0.586,1.536-0.001,2.123
			l0.245,0.245c0.129-0.128,0.338-0.128,0.466,0c0.128,0.129,0.128,0.337-0.001,0.466l0.245,0.245
			c0.129-0.129,0.337-0.129,0.466-0.001c0.128,0.128,0.128,0.338,0,0.466l0.256,0.257c0.129-0.129,0.337-0.129,0.466-0.001
			l10.536-10.536C23.111,14.093,23.111,13.885,23.239,13.757z M15.705,17.221c-0.066,0.497-0.131,0.994-0.197,1.49
			c-0.003,0.001-0.005,0.001-0.007,0.001c-0.028-0.053-0.056-0.106-0.084-0.159c-0.11-0.209-0.22-0.418-0.329-0.628
			c-0.096-0.182-0.192-0.365-0.287-0.549c-0.014-0.027-0.028-0.036-0.061-0.031c-0.23,0.032-0.46,0.06-0.691,0.091
			c-0.229,0.03-0.457,0.06-0.687,0.09c-0.018,0.002-0.036,0.004-0.062,0.007c0.013-0.014,0.021-0.022,0.03-0.03
			c0.321-0.321,0.643-0.643,0.964-0.964c0.017-0.017,0.02-0.028,0.009-0.052c-0.087-0.171-0.172-0.344-0.258-0.515
			c-0.09-0.18-0.18-0.36-0.27-0.54c-0.045-0.088-0.088-0.177-0.128-0.271c0.449,0.224,0.899,0.449,1.349,0.674
			c0.338-0.338,0.674-0.674,1.017-1.018c-0.005,0.044-0.009,0.079-0.013,0.115c-0.028,0.217-0.055,0.434-0.083,0.651
			c-0.029,0.228-0.059,0.456-0.089,0.684c-0.003,0.023,0.001,0.037,0.023,0.049c0.189,0.098,0.378,0.196,0.566,0.295
			c0.255,0.134,0.51,0.268,0.765,0.401c0.003,0.002,0.007,0.005,0.017,0.012C16.698,17.091,16.203,17.156,15.705,17.221z"/>
	</g>
</g>
</svg>
