<?xml version="1.0" standalone="no"?>
<!DOCTYPE svg PUBLIC "-//W3C//DTD SVG 20010904//EN"
 "http://www.w3.org/TR/2001/REC-SVG-20010904/DTD/svg10.dtd">
<svg version="1.0" xmlns="http://www.w3.org/2000/svg"
 width="475.000000pt" height="475.000000pt" viewBox="0 0 475.000000 475.000000"
 preserveAspectRatio="xMidYMid meet">
<metadata>
Created by potrace 1.11, written by Peter Selinger 2001-2013
</metadata>
<g transform="translate(0.000000,475.000000) scale(0.100000,-0.100000)"
fill="#000000" stroke="none">
<path d="M2220 4024 c-25 -2 -119 -8 -210 -14 -375 -24 -740 -92 -980 -183
-58 -22 -66 -28 -73 -58 -8 -37 -2 -433 14 -909 11 -347 46 -823 86 -1173 l27
-238 111 -78 c246 -174 543 -347 938 -547 215 -109 230 -115 260 -104 55 19
364 188 572 313 265 159 654 424 665 452 10 27 44 374 66 675 18 258 34 1075
26 1427 l-5 251 -106 31 c-243 71 -511 120 -773 141 -139 11 -547 20 -618 14z"/>
</g>
</svg>
