<?xml version="1.0" encoding="utf-8"?>
<!-- Generator: Adobe Illustrator 21.1.0, SVG Export Plug-In . SVG Version: 6.00 Build 0)  -->
<svg version="1.1" id="Layer_1" xmlns="http://www.w3.org/2000/svg" xmlns:xlink="http://www.w3.org/1999/xlink" x="0px" y="0px"
	 viewBox="0 0 80 80" style="enable-background:new 0 0 80 80;" xml:space="preserve">
<style type="text/css">
	.st0{fill:#FFFFFF;}
</style>
<g>
	<g>
		<g>
			<path class="st0" d="M40.5,70.9L34.7,68l-11-6.2c-0.5-0.3-1.1-0.7-1.6-1L19.3,59l-2.6-1.9l-0.9-7.8l-1-11.7l-0.4-11.4l-0.1-8.6
				l0-4.3l0.9-0.3c5.3-2,11.3-3.2,18.4-3.6l1.3-0.1c0,0,4.2-0.3,5.2-0.3c0.5,0,1.7,0,2.9,0c0.6,0,1.2,0,1.5,0c0.4,0,0.7,0,1,0.1
				c6.6,0.2,13.1,1.2,19.2,3.1l1,0.3l0.2,8.3l-0.1,12.4l-0.2,6L65,47.2l-0.8,8.7L64,56.8l-8.1,5.5l-6.6,4c-2.6,1.5-5.3,3-8.1,4.3
				L40.5,70.9z M17.6,56.6l3.3,2.3l1.7,1.1c0.6,0.4,1.1,0.7,1.6,1l4.7,2.8l6.2,3.4l5.4,2.6l0.2-0.1c2.7-1.3,5.4-2.8,8-4.3l0.6-0.3
				l6-3.7l7.8-5.3l0.1-0.5l0.8-8.6l0.5-7.7l0.2-5.9L64.8,21l-0.1-7.6l-0.3-0.1c-6.1-1.9-12.4-2.9-19-3.1l-0.1,0
				c-0.1,0-0.4,0-0.8-0.1c-0.4,0-0.9,0-1.5,0c-1.2,0-2.4,0-2.9,0c-0.9,0-4.7,0.2-5.1,0.3l-0.9,0.1C26.9,10.9,20.8,12,15.5,14
				l-0.3,0.1l0,3.6l0.1,8.5l0.4,11.3l0.9,11.7L17.6,56.6z"/>
		</g>
	</g>
</g>
</svg>
