<?xml version="1.0" encoding="utf-8"?>
<!-- Generator: Adobe Illustrator 21.1.0, SVG Export Plug-In . SVG Version: 6.00 Build 0)  -->
<svg version="1.1" id="Layer_1" xmlns="http://www.w3.org/2000/svg" xmlns:xlink="http://www.w3.org/1999/xlink" x="0px" y="0px"
	 viewBox="0 0 80 80" style="enable-background:new 0 0 80 80;" xml:space="preserve">
<style type="text/css">
	.st0{fill:#FFFFFF;}
</style>
<g>
	<g>
		<path class="st0" d="M65.1,13.1l-0.6-0.2C58.4,11,52,9.9,45.4,9.8c-0.2-0.1-0.5-0.1-0.9-0.1c-0.4,0-0.9,0-1.5,0
			c-1.2,0-2.4,0-2.9,0c-1,0-5,0.2-5.2,0.3L34,10v0c-7.3,0.4-13.4,1.6-18.7,3.6l-0.6,0.2l0,3.9l0.1,8.6l0.4,11.3l1,11.7l0.9,7.5
			l2.5,1.8l0.1,0.1l0.1,0.1c0,0,0,0,0.1,0c0.3,0.2,0.5,0.3,0.7,0.5c0.5,0.3,1,0.7,1.5,1c0.1,0,0.1,0.1,0.2,0.1
			c0.6,0.3,1.1,0.7,1.6,1c0.1,0,0.1,0.1,0.2,0.1c0.2,0.1,0.4,0.2,0.6,0.4c0.1,0,0.1,0.1,0.2,0.1c0.2,0.1,0.4,0.2,0.6,0.3
			c0.1,0,0.1,0.1,0.2,0.1c0.2,0.1,0.4,0.2,0.6,0.3c0.1,0,0.1,0.1,0.2,0.1c0.2,0.1,0.4,0.2,0.6,0.3c0.1,0,0.1,0.1,0.2,0.1
			c0.2,0.1,0.4,0.2,0.6,0.3c0.1,0,0.1,0.1,0.2,0.1c0.2,0.1,0.4,0.2,0.6,0.3l1,0.5l0.2,0.1l1.5,0.8l0.7,0.4l2.7,1.5l5.6,2.8l0.4-0.2
			c2.8-1.3,5.4-2.8,8.1-4.3l0.6-0.3l6-3.7l7.9-5.4l0.2-0.7l0.8-8.6l0.5-7.8l0.2-6L65.3,21L65.1,13.1z"/>
	</g>
</g>
</svg>
