<?xml version="1.0" encoding="utf-8"?>
<!-- Generator: Adobe Illustrator 21.1.0, SVG Export Plug-In . SVG Version: 6.00 Build 0)  -->
<svg version="1.1" id="Layer_1" xmlns="http://www.w3.org/2000/svg" xmlns:xlink="http://www.w3.org/1999/xlink" x="0px" y="0px"
	 viewBox="0 0 20 25" style="enable-background:new 0 0 20 25;" xml:space="preserve">
<style type="text/css">
	.st0{fill:#FFFF00;}
</style>
<g>
	<path class="st0" d="M19.588,2.625c-2.377-0.74-4.904-1.158-7.547-1.216c-0.001-0.007-0.002-0.011-0.003-0.012
		c-0.019-0.019-1.614-0.038-2.005-0.038c-0.391,0-2.023,0.099-2.023,0.099l0,0.008C5.319,1.594,2.742,1.99,0.367,2.882L0.356,4.183
		l0.056,3.379l0.173,4.472l0.375,4.613l0.335,2.813l0.882,0.632l0.027,0.027l0.017,0.012c1.145,0.743,2.301,1.469,3.485,2.145
		l2.452,1.323l2.06,1.005c1.157-0.553,2.274-1.19,3.396-1.821l2.357-1.446l3.016-2.05l0.028-0.111l0.318-3.389l0.201-3.055
		l0.083-2.346l0.028-4.891L19.588,2.625z"/>
	<g>
		<path d="M19.94,2.361l-0.245-0.076c-2.412-0.751-4.952-1.165-7.553-1.23c-0.119-0.028-0.357-0.031-0.96-0.041
			c-0.468-0.007-0.96-0.012-1.148-0.012c-0.397,0-1.978,0.096-2.045,0.1L7.642,1.123v0.005c-2.868,0.164-5.292,0.629-7.4,1.421
			L0.013,2.635L0,4.18v0.004l0.056,3.383l0.174,4.48l0.376,4.628l0.355,2.983l0.987,0.707l0.029,0.028l0.052,0.035
			c0.008,0.005,0.016,0.011,0.024,0.016c0.07,0.046,0.14,0.091,0.209,0.136c0.014,0.009,0.028,0.018,0.042,0.027
			c0.014,0.009,0.028,0.018,0.042,0.027c0.207,0.134,0.408,0.262,0.602,0.385c0.028,0.018,0.056,0.036,0.084,0.054
			c0.218,0.139,0.429,0.271,0.634,0.398c0.028,0.017,0.056,0.035,0.084,0.052c0.076,0.047,0.152,0.094,0.226,0.139
			c0.028,0.017,0.056,0.034,0.084,0.052c0.076,0.046,0.151,0.092,0.225,0.137c0.028,0.017,0.056,0.034,0.084,0.051
			c0.076,0.046,0.151,0.091,0.225,0.136c0.028,0.017,0.056,0.034,0.084,0.05c0.076,0.045,0.151,0.09,0.225,0.134
			c0.028,0.016,0.056,0.033,0.084,0.05c0.076,0.044,0.151,0.088,0.226,0.131c0.028,0.016,0.056,0.032,0.084,0.048
			c0.078,0.045,0.156,0.09,0.233,0.134l0.401,0.216l0.084,0.045l0.602,0.325l0.042,0.023L6.7,23.217l0.21,0.113l1.078,0.582
			L10.215,25l0.155-0.074c1.087-0.519,2.153-1.12,3.184-1.701l0.233-0.131l2.369-1.453l3.142-2.136l0.067-0.269l0.321-3.416
			l0.202-3.064l0.084-2.357L20,5.498V5.493L19.94,2.361z M19.26,10.38l-0.083,2.335l-0.201,3.044l-0.311,3.316l-2.889,1.964
			l-2.344,1.438l-0.227,0.128c-0.971,0.547-1.974,1.112-2.987,1.604L8.32,23.282L6.91,22.521L6.7,22.408l-0.042-0.023l-0.042-0.023
			l-0.602-0.325L5.93,21.992l-0.051-0.028c-0.193-0.11-0.386-0.222-0.583-0.338c-0.028-0.016-0.056-0.033-0.084-0.049
			c-0.075-0.044-0.15-0.089-0.226-0.134c-0.028-0.017-0.056-0.033-0.084-0.05c-0.074-0.045-0.15-0.09-0.225-0.136
			c-0.028-0.017-0.056-0.034-0.084-0.051c-0.074-0.045-0.15-0.091-0.225-0.138c-0.028-0.017-0.056-0.034-0.084-0.052
			c-0.074-0.046-0.15-0.093-0.225-0.14c-0.028-0.017-0.056-0.035-0.084-0.052c-0.074-0.046-0.15-0.094-0.226-0.141
			c-0.028-0.017-0.056-0.035-0.084-0.053c-0.205-0.128-0.415-0.262-0.634-0.402c-0.028-0.018-0.056-0.036-0.084-0.054
			c-0.168-0.107-0.339-0.218-0.516-0.333l-0.024-0.023l-0.062-0.044l-0.042-0.03l-0.042-0.03l-0.209-0.15L1.63,19.262l-0.316-2.651
			l-0.374-4.598L0.768,7.552l-0.056-3.37l0.009-1.05c2.072-0.745,4.465-1.174,7.307-1.311L8.38,1.804V1.793
			c0.499-0.029,1.387-0.078,1.654-0.078c0.336,0,1.236,0.012,1.691,0.023l0.003,0.021l0.306,0.007
			c2.478,0.055,4.901,0.433,7.204,1.125l0.05,2.608L19.26,10.38z"/>
	</g>
	<path d="M5.922,17.969c0.06-0.195,0.12-0.39,0.18-0.585c0.239-0.767,0.479-1.535,0.718-2.302c0.21-0.671,0.419-1.342,0.633-2.012
		c0.032-0.099,0.019-0.155-0.071-0.223c-0.631-0.477-1.255-0.962-1.882-1.444c-0.624-0.479-1.248-0.958-1.871-1.437
		C3.58,9.928,3.533,9.888,3.463,9.831c0.063,0,0.103,0,0.143,0c1.549,0,3.097-0.001,4.646,0.002c0.082,0,0.116-0.019,0.144-0.103
		c0.203-0.622,0.414-1.241,0.621-1.862c0.217-0.65,0.432-1.301,0.649-1.952c0.106-0.32,0.215-0.639,0.346-0.962
		c0.542,1.624,1.083,3.247,1.626,4.874c1.627,0,3.248,0,4.901,0c-0.117,0.093-0.213,0.169-0.309,0.244
		c-0.589,0.456-1.177,0.913-1.767,1.368c-0.62,0.478-1.24,0.955-1.862,1.431c-0.063,0.048-0.088,0.093-0.062,0.174
		c0.22,0.69,0.437,1.38,0.653,2.072c0.293,0.937,0.584,1.874,0.876,2.811c0.004,0.013,0.005,0.026,0.013,0.07
		c-1.369-1.052-2.718-2.089-4.074-3.131c-1.356,1.04-2.709,2.077-4.062,3.114C5.936,17.978,5.929,17.974,5.922,17.969z"/>
</g>
</svg>
