<?xml version="1.0" encoding="utf-8"?>
<!-- Generator: Adobe Illustrator 22.0.1, SVG Export Plug-In . SVG Version: 6.00 Build 0)  -->
<svg version="1.1" id="iconmonstr" xmlns="http://www.w3.org/2000/svg" xmlns:xlink="http://www.w3.org/1999/xlink" x="0px" y="0px"
	 viewBox="0 0 24 24" style="enable-background:new 0 0 24 24;" xml:space="preserve">
<path id="instagram-2" d="M18.666,5.823V7.51c0,0.27-0.222,0.49-0.496,0.49h-1.674C16.223,8,16,7.781,16,7.51V5.823
	c0-0.271,0.223-0.49,0.496-0.49h1.674C18.444,5.333,18.666,5.552,18.666,5.823z M24,0v24H0V0H24z M20,10h-4.519
	c0.362,0.609,0.581,1.313,0.581,2.073c0,2.25-1.823,4.073-4.073,4.073c-2.25,0-4.073-1.823-4.073-4.073
	c0-0.76,0.219-1.464,0.581-2.073H4v6.853C4,18.59,5.451,20,7.19,20h9.663C18.59,20,20,18.59,20,16.853V10z M11.99,15.21
	c1.73,0,3.137-1.407,3.137-3.137c0-0.939-0.416-1.783-1.07-2.358c-0.23-0.202-0.491-0.371-0.772-0.499
	c-0.396-0.18-0.833-0.28-1.294-0.28c-0.462,0-0.899,0.101-1.294,0.28c-0.282,0.128-0.542,0.297-0.771,0.499
	c-0.656,0.575-1.072,1.419-1.072,2.358C8.852,13.803,10.26,15.21,11.99,15.21z M20,7.148C20,5.41,18.59,4,16.853,4H8.667v3.333H8V4
	H7.333v3.333H6.667V4.051C6.436,4.089,6.212,4.147,6,4.231v3.102H5.333V4.599C4.532,5.17,4,6.096,4,7.148v2.186h4.982
	C9.76,8.479,10.848,8,11.99,8c1.148,0,2.233,0.483,3.007,1.333H20V7.148z M12,14.392c1.281,0,2.318-1.038,2.318-2.319
	c0-1.281-1.037-2.319-2.318-2.319c-1.281,0-2.319,1.038-2.319,2.319C9.681,13.354,10.719,14.392,12,14.392z"/>
</svg>
