<?xml version="1.0" encoding="utf-8"?>
<!-- Generator: Adobe Illustrator 22.0.1, SVG Export Plug-In . SVG Version: 6.00 Build 0)  -->
<svg version="1.1" id="iconmonstr" xmlns="http://www.w3.org/2000/svg" xmlns:xlink="http://www.w3.org/1999/xlink" x="0px" y="0px"
	 viewBox="0 0 24 24" style="enable-background:new 0 0 24 24;" xml:space="preserve">
<path id="twitter-2" d="M0,0v24h24V0H0z M18.861,9.237c0.208,4.617-3.234,9.765-9.33,9.765c-1.854,0-3.579-0.544-5.032-1.475
	c1.742,0.204,3.48-0.279,4.86-1.359c-1.437-0.027-2.649-0.976-3.066-2.28c0.515,0.098,1.021,0.069,1.482-0.057
	c-1.579-0.317-2.668-1.739-2.633-3.26c0.442,0.246,0.949,0.394,1.486,0.411c-1.461-0.977-1.875-2.907-1.016-4.383
	c1.619,1.986,4.038,3.293,6.766,3.43c-0.479-2.053,1.08-4.03,3.198-4.03c0.944,0,1.798,0.398,2.396,1.037
	c0.749-0.147,1.451-0.421,2.085-0.796c-0.244,0.767-0.765,1.41-1.443,1.816c0.664-0.08,1.297-0.256,1.886-0.517
	C20.06,8.196,19.503,8.774,18.861,9.237z"/>
</svg>
